<mxfile host="Electron" agent="Mozilla/5.0 (Windows NT 10.0; Win64; x64) AppleWebKit/537.36 (KHTML, like Gecko) draw.io/28.0.6 Chrome/138.0.7204.100 Electron/37.2.3 Safari/537.36" version="28.0.6">
  <diagram id="KBIwsYY--AiB_v0YLguu" name="Page-1">
    <mxGraphModel dx="1678" dy="2198" grid="1" gridSize="10" guides="1" tooltips="1" connect="1" arrows="1" fold="1" page="1" pageScale="1" pageWidth="1654" pageHeight="1169" math="0" shadow="0">
      <root>
        <mxCell id="0" />
        <mxCell id="1" parent="0" />
        <mxCell id="4" value="" style="rounded=1;whiteSpace=wrap;html=1;strokeWidth=2;fillWeight=4;hachureGap=8;hachureAngle=45;fillColor=light-dark(#0071F0,#198CC4);sketch=1;curveFitting=1;jiggle=2;" parent="1" vertex="1">
          <mxGeometry x="743" y="-642.76" width="115" height="70" as="geometry" />
        </mxCell>
        <mxCell id="5" value="" style="rounded=1;whiteSpace=wrap;html=1;strokeWidth=2;fillWeight=4;hachureGap=8;hachureAngle=45;fillColor=light-dark(#81B890,#198CC4);sketch=1;curveFitting=1;jiggle=2;" parent="1" vertex="1">
          <mxGeometry x="864" y="-851.88" width="110" height="70" as="geometry" />
        </mxCell>
        <mxCell id="15" value="&lt;div&gt;&lt;font style=&quot;color: rgb(77, 77, 77);&quot;&gt;Apache APISIX API GW and load balancing&lt;/font&gt;&lt;/div&gt;" style="rounded=1;whiteSpace=wrap;html=1;strokeWidth=2;fillWeight=4;hachureGap=8;hachureAngle=45;fillColor=light-dark(#FFCE9F,#198CC4);sketch=1;align=center;verticalAlign=middle;curveFitting=1;jiggle=2;fontFamily=Comic Sans MS;fontSize=16;fontColor=#B3B3B3;" parent="1" vertex="1">
          <mxGeometry x="273.5" y="-841.88" width="170" height="100" as="geometry" />
        </mxCell>
        <mxCell id="16" style="edgeStyle=orthogonalEdgeStyle;rounded=0;sketch=1;hachureGap=4;jiggle=2;curveFitting=1;orthogonalLoop=1;jettySize=auto;html=1;fontFamily=Architects Daughter;fontSource=https%3A%2F%2Ffonts.googleapis.com%2Fcss%3Ffamily%3DArchitects%2BDaughter;exitX=1;exitY=0.5;exitDx=0;exitDy=0;entryX=1;entryY=0.5;entryDx=0;entryDy=0;" parent="1" source="30" target="M9iqOvp1g94WVJkQ8rMG-46" edge="1">
          <mxGeometry relative="1" as="geometry">
            <mxPoint x="1051" y="-690.0000000000001" as="targetPoint" />
            <mxPoint x="1030" y="-841.8800000000002" as="sourcePoint" />
            <Array as="points">
              <mxPoint x="1100" y="-837" />
              <mxPoint x="1100" y="-752" />
            </Array>
          </mxGeometry>
        </mxCell>
        <mxCell id="17" value="" style="line;strokeWidth=2;direction=south;html=1;sketch=1;hachureGap=4;jiggle=2;curveFitting=1;fontFamily=Architects Daughter;fontSource=https%3A%2F%2Ffonts.googleapis.com%2Fcss%3Ffamily%3DArchitects%2BDaughter;rotation=-90;" parent="1" vertex="1">
          <mxGeometry x="648.13" y="-1030" width="10" height="418.75" as="geometry" />
        </mxCell>
        <mxCell id="21" value="" style="line;strokeWidth=2;direction=south;html=1;sketch=1;hachureGap=4;jiggle=2;curveFitting=1;fontFamily=Architects Daughter;fontSource=https%3A%2F%2Ffonts.googleapis.com%2Fcss%3Ffamily%3DArchitects%2BDaughter;rotation=-90;" parent="1" vertex="1">
          <mxGeometry x="549" y="-871.88" width="10" height="216.25" as="geometry" />
        </mxCell>
        <mxCell id="22" value="&lt;font face=&quot;Architects Daughter&quot;&gt;&lt;span style=&quot;font-size: 20px;&quot;&gt;Read-Only / Queries (GraphQL / ODATA)&lt;/span&gt;&lt;/font&gt;" style="text;html=1;align=center;verticalAlign=middle;resizable=0;points=[];autosize=1;strokeColor=none;fillColor=none;" parent="1" vertex="1">
          <mxGeometry x="454" y="-857.88" width="400" height="40" as="geometry" />
        </mxCell>
        <mxCell id="23" value="&lt;font face=&quot;Architects Daughter&quot;&gt;&lt;span style=&quot;font-size: 20px;&quot;&gt;Write operations&lt;/span&gt;&lt;/font&gt;" style="text;html=1;align=center;verticalAlign=middle;resizable=0;points=[];autosize=1;strokeColor=none;fillColor=none;" parent="1" vertex="1">
          <mxGeometry x="450" y="-797.88" width="180" height="40" as="geometry" />
        </mxCell>
        <mxCell id="28" value="" style="rounded=1;whiteSpace=wrap;html=1;strokeWidth=2;fillWeight=4;hachureGap=8;hachureAngle=45;fillColor=light-dark(#81B890,#198CC4);sketch=1;curveFitting=1;jiggle=2;" parent="1" vertex="1">
          <mxGeometry x="873" y="-861.88" width="110" height="70" as="geometry" />
        </mxCell>
        <mxCell id="30" value="&lt;span style=&quot;color: rgb(0, 0, 0); font-family: &amp;quot;Comic Sans MS&amp;quot;; text-wrap-mode: nowrap;&quot;&gt;IPjFIXqry&lt;/span&gt;" style="rounded=1;whiteSpace=wrap;html=1;strokeWidth=2;fillWeight=4;hachureGap=8;hachureAngle=45;fillColor=light-dark(#81B890,#198CC4);sketch=1;curveFitting=1;jiggle=2;" parent="1" vertex="1">
          <mxGeometry x="884" y="-871.88" width="110" height="70" as="geometry" />
        </mxCell>
        <mxCell id="34" value="" style="rounded=1;whiteSpace=wrap;html=1;strokeWidth=2;fillWeight=4;hachureGap=8;hachureAngle=45;fillColor=light-dark(#009494,#198CC4);sketch=1;curveFitting=1;jiggle=2;" parent="1" vertex="1">
          <mxGeometry x="559" y="-643.76" width="110" height="70" as="geometry" />
        </mxCell>
        <mxCell id="35" value="" style="rounded=1;whiteSpace=wrap;html=1;strokeWidth=2;fillWeight=4;hachureGap=8;hachureAngle=45;fillColor=light-dark(#009494,#198CC4);sketch=1;curveFitting=1;jiggle=2;" parent="1" vertex="1">
          <mxGeometry x="568" y="-653.76" width="110" height="70" as="geometry" />
        </mxCell>
        <mxCell id="36" value="&lt;span style=&quot;color: rgb(0, 0, 0); font-family: &amp;quot;Comic Sans MS&amp;quot;; text-wrap-mode: nowrap;&quot;&gt;IPjFIXsvc&lt;/span&gt;" style="rounded=1;whiteSpace=wrap;html=1;strokeWidth=2;fillWeight=4;hachureGap=8;hachureAngle=45;fillColor=light-dark(#009494,#198CC4);sketch=1;curveFitting=1;jiggle=2;" parent="1" vertex="1">
          <mxGeometry x="579" y="-663.76" width="110" height="70" as="geometry" />
        </mxCell>
        <mxCell id="38" value="" style="rounded=1;whiteSpace=wrap;html=1;strokeWidth=2;fillWeight=4;hachureGap=8;hachureAngle=45;fillColor=light-dark(#0071F0,#198CC4);sketch=1;curveFitting=1;jiggle=2;" parent="1" vertex="1">
          <mxGeometry x="757" y="-652.76" width="115" height="70" as="geometry" />
        </mxCell>
        <mxCell id="39" value="&lt;span style=&quot;color: rgb(0, 0, 0); font-family: &amp;quot;Comic Sans MS&amp;quot;; text-wrap-mode: nowrap;&quot;&gt;IPyFIXweb&lt;/span&gt;" style="rounded=1;whiteSpace=wrap;html=1;strokeWidth=2;fillWeight=4;hachureGap=8;hachureAngle=45;fillColor=light-dark(#0071F0,#198CC4);sketch=1;curveFitting=1;jiggle=2;" parent="1" vertex="1">
          <mxGeometry x="769" y="-663.76" width="115" height="70" as="geometry" />
        </mxCell>
        <mxCell id="44" style="edgeStyle=orthogonalEdgeStyle;rounded=0;sketch=1;hachureGap=4;jiggle=2;curveFitting=1;orthogonalLoop=1;jettySize=auto;html=1;fontFamily=Architects Daughter;fontSource=https%3A%2F%2Ffonts.googleapis.com%2Fcss%3Ffamily%3DArchitects%2BDaughter;exitX=0.5;exitY=1;exitDx=0;exitDy=0;entryX=0.5;entryY=0;entryDx=0;entryDy=0;" parent="1" source="43" edge="1" target="15">
          <mxGeometry relative="1" as="geometry">
            <mxPoint x="274" y="-791.88" as="targetPoint" />
            <mxPoint x="147.5" y="-774.38" as="sourcePoint" />
            <Array as="points">
              <mxPoint x="360" y="-900" />
              <mxPoint x="360" y="-850" />
              <mxPoint x="359" y="-850" />
            </Array>
          </mxGeometry>
        </mxCell>
        <mxCell id="43" value="&lt;span style=&quot;color: rgb(0, 0, 0); font-family: &amp;quot;Comic Sans MS&amp;quot;; text-wrap-mode: nowrap;&quot;&gt;IPFIXanalysis&lt;/span&gt;" style="rounded=1;whiteSpace=wrap;html=1;strokeWidth=2;fillWeight=4;hachureGap=8;hachureAngle=45;fillColor=light-dark(#9090FF,#198CC4);sketch=1;curveFitting=1;jiggle=2;" parent="1" vertex="1">
          <mxGeometry x="310" y="-960" width="100" height="70" as="geometry" />
        </mxCell>
        <mxCell id="M9iqOvp1g94WVJkQ8rMG-46" value="&lt;div&gt;&lt;font style=&quot;color: rgb(77, 77, 77);&quot;&gt;Upstream&lt;/font&gt;&lt;/div&gt;&lt;div&gt;&lt;font style=&quot;color: rgb(77, 77, 77);&quot;&gt;Apache APISIX API GW and load balancing&lt;/font&gt;&lt;/div&gt;" style="rounded=1;whiteSpace=wrap;html=1;strokeWidth=2;fillWeight=4;hachureGap=8;hachureAngle=45;fillColor=light-dark(#FFCE9F,#198CC4);sketch=1;align=center;verticalAlign=middle;curveFitting=1;jiggle=2;fontFamily=Comic Sans MS;fontSize=16;fontColor=#B3B3B3;" vertex="1" parent="1">
          <mxGeometry x="641" y="-801.88" width="170" height="100" as="geometry" />
        </mxCell>
        <mxCell id="M9iqOvp1g94WVJkQ8rMG-47" value="&lt;span style=&quot;font-size: 20px;&quot;&gt;Read-Only&lt;/span&gt;" style="text;html=1;align=center;verticalAlign=middle;resizable=0;points=[];autosize=1;strokeColor=none;fillColor=none;fontFamily=Architects Daughter;fontSource=https%3A%2F%2Ffonts.googleapis.com%2Fcss%3Ffamily%3DArchitects%2BDaughter;" vertex="1" parent="1">
          <mxGeometry x="994" y="-871.88" width="110" height="40" as="geometry" />
        </mxCell>
        <mxCell id="M9iqOvp1g94WVJkQ8rMG-50" value="" style="line;strokeWidth=2;direction=south;html=1;sketch=1;hachureGap=4;jiggle=2;curveFitting=1;fontFamily=Architects Daughter;fontSource=https%3A%2F%2Ffonts.googleapis.com%2Fcss%3Ffamily%3DArchitects%2BDaughter;rotation=-180;" vertex="1" parent="1">
          <mxGeometry x="655" y="-701.88" width="10" height="38.12" as="geometry" />
        </mxCell>
        <mxCell id="M9iqOvp1g94WVJkQ8rMG-51" value="" style="line;strokeWidth=2;direction=south;html=1;sketch=1;hachureGap=4;jiggle=2;curveFitting=1;fontFamily=Architects Daughter;fontSource=https%3A%2F%2Ffonts.googleapis.com%2Fcss%3Ffamily%3DArchitects%2BDaughter;rotation=-180;" vertex="1" parent="1">
          <mxGeometry x="790" y="-701.88" width="10" height="38.12" as="geometry" />
        </mxCell>
        <mxCell id="M9iqOvp1g94WVJkQ8rMG-52" style="edgeStyle=orthogonalEdgeStyle;rounded=0;sketch=1;hachureGap=4;jiggle=2;curveFitting=1;orthogonalLoop=1;jettySize=auto;html=1;fontFamily=Architects Daughter;fontSource=https%3A%2F%2Ffonts.googleapis.com%2Fcss%3Ffamily%3DArchitects%2BDaughter;exitX=0.5;exitY=0;exitDx=0;exitDy=0;entryX=0.5;entryY=1;entryDx=0;entryDy=0;" edge="1" parent="1" source="45" target="15">
          <mxGeometry relative="1" as="geometry">
            <mxPoint x="230.51" y="-643.88" as="targetPoint" />
            <mxPoint x="251.51" y="-701.88" as="sourcePoint" />
            <Array as="points">
              <mxPoint x="354" y="-650" />
              <mxPoint x="354" y="-690" />
              <mxPoint x="358" y="-690" />
            </Array>
          </mxGeometry>
        </mxCell>
        <mxCell id="M9iqOvp1g94WVJkQ8rMG-57" value="" style="ellipse;whiteSpace=wrap;html=1;strokeWidth=2;fillWeight=2;hachureGap=8;fillColor=#f5f5f5;fillStyle=dots;sketch=1;jiggle=2;curveFitting=1;fontFamily=Architects Daughter;fontSource=https%3A%2F%2Ffonts.googleapis.com%2Fcss%3Ffamily%3DArchitects%2BDaughter;strokeColor=#666666;gradientColor=#b3b3b3;" vertex="1" parent="1">
          <mxGeometry x="756" y="-535" width="164" height="80" as="geometry" />
        </mxCell>
        <mxCell id="45" value="&lt;span style=&quot;color: rgb(0, 0, 0); font-family: &amp;quot;Comic Sans MS&amp;quot;; text-wrap-mode: nowrap;&quot;&gt;IPFIXcommand&lt;/span&gt;" style="rounded=1;whiteSpace=wrap;html=1;strokeWidth=2;fillWeight=4;hachureGap=8;hachureAngle=45;fillColor=light-dark(#66B2FF,#198CC4);sketch=1;curveFitting=1;jiggle=2;" parent="1" vertex="1">
          <mxGeometry x="303.5" y="-696.25" width="100" height="70" as="geometry" />
        </mxCell>
        <mxCell id="M9iqOvp1g94WVJkQ8rMG-61" value="&lt;font style=&quot;&quot;&gt;&lt;span style=&quot;font-size: 14px;&quot;&gt;keepalived&amp;nbsp;&lt;/span&gt;&lt;/font&gt;&lt;div&gt;&lt;font style=&quot;&quot;&gt;&lt;span style=&quot;font-size: 14px;&quot;&gt;(&lt;/span&gt;&lt;span style=&quot;font-size: 14px;&quot;&gt;VRRP, LVS/IPVS&lt;/span&gt;&lt;span style=&quot;font-size: 14px;&quot;&gt;)&lt;/span&gt;&lt;/font&gt;&lt;div&gt;&lt;font style=&quot;&quot;&gt;&lt;span style=&quot;font-size: 14px;&quot;&gt;HA and LB&amp;nbsp;&lt;/span&gt;&lt;/font&gt;&lt;/div&gt;&lt;div&gt;&lt;font style=&quot;&quot;&gt;&lt;span style=&quot;font-size: 14px;&quot;&gt;IPFIX TCP services&lt;/span&gt;&lt;/font&gt;&lt;/div&gt;&lt;/div&gt;" style="ellipse;whiteSpace=wrap;html=1;strokeWidth=2;fillWeight=2;hachureGap=8;fillColor=#f5f5f5;fillStyle=dots;sketch=1;jiggle=2;curveFitting=1;fontFamily=Architects Daughter;fontSource=https%3A%2F%2Ffonts.googleapis.com%2Fcss%3Ffamily%3DArchitects%2BDaughter;strokeColor=#666666;gradientColor=#b3b3b3;" vertex="1" parent="1">
          <mxGeometry x="743" y="-522" width="167" height="80" as="geometry" />
        </mxCell>
        <mxCell id="M9iqOvp1g94WVJkQ8rMG-62" value="" style="line;strokeWidth=2;direction=south;html=1;sketch=1;hachureGap=4;jiggle=2;curveFitting=1;fontFamily=Architects Daughter;fontSource=https%3A%2F%2Ffonts.googleapis.com%2Fcss%3Ffamily%3DArchitects%2BDaughter;rotation=-180;" vertex="1" parent="1">
          <mxGeometry x="801" y="-572.76" width="10" height="38.12" as="geometry" />
        </mxCell>
        <mxCell id="M9iqOvp1g94WVJkQ8rMG-63" style="edgeStyle=orthogonalEdgeStyle;rounded=0;sketch=1;hachureGap=4;jiggle=2;curveFitting=1;orthogonalLoop=1;jettySize=auto;html=1;fontFamily=Architects Daughter;fontSource=https%3A%2F%2Ffonts.googleapis.com%2Fcss%3Ffamily%3DArchitects%2BDaughter;exitX=0.5;exitY=1;exitDx=0;exitDy=0;entryX=0;entryY=0.5;entryDx=0;entryDy=0;" edge="1" parent="1" source="45" target="M9iqOvp1g94WVJkQ8rMG-61">
          <mxGeometry relative="1" as="geometry">
            <mxPoint x="215.5" y="-487.88" as="targetPoint" />
            <mxPoint x="398.5" y="-572.88" as="sourcePoint" />
            <Array as="points">
              <mxPoint x="353" y="-482" />
            </Array>
          </mxGeometry>
        </mxCell>
        <mxCell id="M9iqOvp1g94WVJkQ8rMG-64" value="" style="rounded=1;whiteSpace=wrap;html=1;strokeWidth=2;fillWeight=4;hachureGap=8;hachureAngle=45;fillColor=light-dark(#333333,#198CC4);sketch=1;curveFitting=1;jiggle=2;" vertex="1" parent="1">
          <mxGeometry x="1080" y="-631" width="130" height="76.24" as="geometry" />
        </mxCell>
        <mxCell id="M9iqOvp1g94WVJkQ8rMG-65" value="" style="rounded=1;whiteSpace=wrap;html=1;strokeWidth=2;fillWeight=4;hachureGap=8;hachureAngle=45;fillColor=light-dark(#333333,#198CC4);sketch=1;curveFitting=1;jiggle=2;" vertex="1" parent="1">
          <mxGeometry x="1090" y="-624.25" width="130" height="76.24" as="geometry" />
        </mxCell>
        <mxCell id="M9iqOvp1g94WVJkQ8rMG-66" value="&lt;span style=&quot;font-family: &amp;quot;Comic Sans MS&amp;quot;; text-wrap-mode: nowrap;&quot;&gt;&lt;font style=&quot;color: rgb(255, 255, 255);&quot;&gt;Remote hosts/devices&lt;/font&gt;&lt;/span&gt;&lt;div&gt;&lt;span style=&quot;font-family: &amp;quot;Comic Sans MS&amp;quot;; text-wrap-mode: nowrap;&quot;&gt;&lt;font style=&quot;color: rgb(255, 255, 255);&quot;&gt;IPFIX exporters&lt;/font&gt;&lt;/span&gt;&lt;/div&gt;" style="rounded=1;whiteSpace=wrap;html=1;strokeWidth=2;fillWeight=4;hachureGap=8;hachureAngle=45;fillColor=light-dark(#333333,#198CC4);sketch=1;curveFitting=1;jiggle=2;" vertex="1" parent="1">
          <mxGeometry x="1101" y="-614.76" width="130" height="76.24" as="geometry" />
        </mxCell>
        <mxCell id="M9iqOvp1g94WVJkQ8rMG-67" style="edgeStyle=orthogonalEdgeStyle;rounded=0;sketch=1;hachureGap=4;jiggle=2;curveFitting=1;orthogonalLoop=1;jettySize=auto;html=1;fontFamily=Architects Daughter;fontSource=https%3A%2F%2Ffonts.googleapis.com%2Fcss%3Ffamily%3DArchitects%2BDaughter;exitX=0.5;exitY=1;exitDx=0;exitDy=0;entryX=1;entryY=0.5;entryDx=0;entryDy=0;" edge="1" parent="1" source="M9iqOvp1g94WVJkQ8rMG-66" target="M9iqOvp1g94WVJkQ8rMG-57">
          <mxGeometry relative="1" as="geometry">
            <mxPoint x="900" y="-395.06" as="targetPoint" />
            <mxPoint x="1083" y="-480.06" as="sourcePoint" />
            <Array as="points">
              <mxPoint x="1166" y="-495" />
            </Array>
          </mxGeometry>
        </mxCell>
      </root>
    </mxGraphModel>
  </diagram>
</mxfile>
